<svg width="40" height="33" viewBox="0 0 40 33" fill="none" xmlns="http://www.w3.org/2000/svg">
<path d="M19.187 28.4747C18.9945 28.3851 18.8217 28.4637 18.6384 28.5012C17.0384 28.8131 15.6336 28.4391 14.4484 27.3281C14.1986 27.089 13.9531 26.9949 13.5831 27.0018C10.5143 27.0569 8.16017 25.7017 6.31679 23.5337C3.81387 20.5959 2.86229 17.2853 3.11899 13.7501C3.3024 11.173 4.20437 8.86384 6.09108 6.96064C8.30586 4.7231 11.1169 4.01482 14.4925 4.71233C16.2044 5.07228 17.7787 5.70229 19.2703 6.55947C19.5061 6.68935 19.6929 6.7199 19.9387 6.6512C20.5056 6.47627 21.1047 6.46328 21.7197 6.51202C22.3573 6.35593 22.8766 6.59963 23.345 6.99268C23.795 7.33294 24.2451 7.6732 24.6976 8.00452C25.498 8.37098 26.1199 8.95826 26.739 9.51603C27.9439 10.594 29.0015 11.7765 29.7118 13.1636C29.8693 13.4642 30.1427 13.7766 29.8878 14.1209C29.4197 14.3317 28.8879 14.2955 28.3874 14.3443C26.7378 14.5185 25.083 14.6721 23.4281 14.8256C23.2394 14.8425 22.9189 14.7859 22.8964 14.9908C22.8719 15.243 23.1876 15.3175 23.4177 15.3883C24.5752 15.7157 25.7422 16.0072 26.892 16.323C27.2255 16.4118 27.5017 16.3511 27.7538 16.1787C28.4505 15.722 29.007 15.1418 29.4924 14.5044C29.6112 14.3443 29.717 14.1521 29.9841 14.1657C30.2628 14.2974 30.2936 14.5452 30.3543 14.7626C30.7634 16.2229 30.8226 17.6954 30.6148 19.1543C30.5706 19.4396 30.6073 19.7465 30.4495 20.0112C30.3432 20.165 30.1599 20.2024 29.9742 20.2488C29.0407 20.4986 28.112 20.7305 27.1809 20.9714C26.7142 21.0963 26.5216 21.0067 26.2948 20.6013C25.6221 19.3967 25.6901 19.5873 24.5458 19.896C23.5522 20.1681 22.5532 20.4197 21.575 20.7151C21.0106 20.8811 20.821 20.821 20.4652 20.3717C20.0863 19.8874 19.6925 19.4184 19.316 18.9252C19.0035 18.5162 18.8924 18.4866 18.4064 18.683C17.8353 18.9143 17.2564 19.134 16.6853 19.3653C16.1517 19.5778 15.9596 19.5267 15.5514 19.1113C14.7196 18.2573 13.8728 17.4184 13.0308 16.5617C12.5971 16.1204 12.5442 16.1159 12.0212 16.3696C10.8602 16.9422 10.9973 17.0362 9.98448 16.0094C9.25997 15.2798 8.53067 14.5681 7.78355 13.842C8.48727 15.697 9.21601 17.5394 9.93224 19.3881C10.1225 19.8892 10.1528 19.8973 10.6556 19.6383C11.844 19.0442 11.6905 19.0513 12.5989 19.9832C13.3364 20.745 14.1163 21.4701 14.8413 22.2382C15.1118 22.5211 15.3568 22.5767 15.7099 22.4312C16.246 22.2097 16.7974 22.0115 17.3435 21.7927C18.0724 21.498 18.2038 21.533 18.6699 22.1363C19.0309 22.6062 19.4171 23.0636 19.7882 23.5362C20.0059 23.8146 20.2484 23.8792 20.5896 23.7783C21.8089 23.4321 23.0287 23.1243 24.248 22.7781C24.7999 22.6184 24.9063 22.6659 25.2269 23.125C25.3194 23.2646 25.4142 23.3953 25.4965 23.5322C25.8331 24.0531 25.8432 24.0558 26.3392 23.6608C27.3861 22.8278 28.4127 21.9894 29.475 21.1797C29.6371 21.0599 29.7631 20.873 30.0278 20.8956C30.216 21.0415 30.1376 21.2124 30.0843 21.3707C28.7631 24.7566 26.1801 26.9536 22.3509 27.985C21.5002 28.2089 20.6311 28.38 19.7486 28.4805C19.5677 28.509 19.3838 28.508 19.187 28.4747Z" fill="#F17503"/>
<path d="M19.176 28.4805C20.2538 28.2594 21.3532 28.1591 22.3997 27.8529C25.1803 27.0594 27.4192 25.6616 28.9011 23.3718C29.3259 22.718 29.6318 22.0229 29.9704 21.327C30.0243 21.2071 30.0931 21.0721 30.0131 20.9261C29.9812 20.6013 30.323 20.5389 30.4996 20.3654C30.6714 20.2099 30.8456 20.0453 31.0661 19.9506C30.8321 19.9746 30.6185 20.2053 30.3214 20.0208C30.6456 18.209 30.7027 16.3835 30.1225 14.5513C30.0829 14.4162 30.0559 14.2748 29.9086 14.178C29.873 14.1493 29.8599 14.1171 29.8594 14.0786C29.7769 13.3377 29.3131 12.7252 28.8921 12.1146C27.7887 10.5362 26.3387 9.2394 24.7218 8.08027C24.6939 8.06325 24.6934 8.02477 24.6678 7.9988C26.3373 7.95439 27.9625 8.19541 29.571 8.7004C31.0885 9.18115 32.4478 9.88819 33.5698 10.9539C35.3983 12.6966 36.0778 14.8045 36.147 17.047C36.3285 22.3393 32.4731 27.4961 27.0451 29.272C25.0962 29.9131 23.0874 30.0109 21.0234 29.3463C20.3711 29.1534 19.7577 28.8559 19.176 28.4805Z" fill="#D25C02"/>
<path d="M23.3282 6.97975C22.792 6.79866 22.2727 6.55495 21.7029 6.49908C21.6219 6.07497 21.8239 5.72621 22.0182 5.36581C22.4313 4.59405 22.9258 3.88228 23.5777 3.26992C24.6524 2.25261 26.0816 1.97182 27.6067 1.89865C27.7703 1.89429 27.8969 1.94717 27.987 2.09574C28.3779 2.73657 28.7689 3.3774 29.2033 4.05851C26.7235 4.29919 24.5817 4.9749 23.3282 6.97975Z" fill="#68A900"/>
<path d="M30.3334 20.025C30.6547 19.9573 30.9784 19.8807 31.4276 19.7801C30.8871 20.2204 30.4563 20.5749 30.013 20.9357C28.7325 21.9546 27.4342 22.9592 26.1739 23.9835C25.8551 24.2434 25.7237 24.2084 25.5254 23.8587C25.3193 23.4973 25.1867 22.9831 24.8023 22.8424C24.4179 22.7017 23.9687 23.0035 23.5498 23.1122C22.5364 23.3786 21.533 23.6477 20.535 23.9374C20.2065 24.0318 19.9924 24.0227 19.7619 23.7123C19.3464 23.1228 18.8434 22.577 18.4155 21.9937C18.1849 21.6833 17.9857 21.659 17.6553 21.8008C16.9695 22.097 16.2553 22.3378 15.5694 22.634C15.2765 22.7571 15.1197 22.6961 14.9156 22.4885C13.9819 21.5311 13.013 20.5835 12.0817 19.6172C11.8189 19.346 11.6086 19.2421 11.2768 19.4698C11.0124 19.6484 10.6891 19.7634 10.4069 19.9277C10.1371 20.0857 10.0504 20.0051 9.9464 19.7476C9.29994 18.043 8.62847 16.351 7.96951 14.6527C7.82115 14.2779 7.6805 13.9149 7.59706 13.5C7.9845 13.8713 8.37964 14.2543 8.76707 14.6257C9.41971 15.2592 10.0598 15.899 10.7 16.5388C10.8886 16.7231 11.0431 16.793 11.2701 16.6331C11.3624 16.5715 11.4725 16.5243 11.5726 16.4743C12.5902 15.9504 12.5902 15.9504 13.4344 16.7978C14.2199 17.5816 15.0053 18.3655 15.7759 19.1645C15.9954 19.3954 16.1773 19.4438 16.4827 19.3144C17.181 19.012 17.9101 18.7561 18.606 18.4625C18.8864 18.3457 19.0505 18.3798 19.2426 18.6321C19.6628 19.2037 20.148 19.7352 20.5658 20.3158C20.8171 20.67 21.0548 20.7525 21.491 20.6197C22.7397 20.2435 24.0244 19.9344 25.2807 19.5699C25.6318 19.4719 25.7886 19.5328 25.9687 19.8298C26.1926 20.2055 26.3078 20.7438 26.7125 20.8898C27.107 21.0332 27.5889 20.7306 28.028 20.6273C28.8034 20.4411 29.5657 20.2228 30.3334 20.025Z" fill="#231F20"/>
<path d="M12.0399 9.28772C14.0674 10.7282 15.9578 12.0747 17.853 13.4033C18.135 13.6029 18.111 13.6923 17.8128 13.7949C17.5872 13.869 17.3789 13.9189 17.1161 13.849C15.8757 13.509 14.6227 13.1754 13.3798 12.8444C13.2283 12.8041 13.0695 12.7905 12.9795 12.642C12.3545 11.6229 12.139 10.5308 12.0399 9.28772Z" fill="#231F20"/>
<path d="M29.8699 14.0788C29.8829 14.111 29.906 14.1459 29.919 14.1781C29.3193 14.919 28.7399 15.6653 27.9064 16.2289C27.5495 16.4692 27.2209 16.5637 26.7407 16.4167C25.6287 16.0822 24.4898 15.8077 23.3682 15.509C23.2469 15.4767 23.1209 15.4623 23.0169 15.4059C22.7936 15.2698 22.5443 15.0693 22.5567 14.8618C22.5721 14.6839 22.8925 14.7405 23.0811 14.7236C25.3591 14.5063 27.6145 14.2926 29.8699 14.0788Z" fill="#231F20"/>
</svg>
