<svg width="74" height="66" viewBox="0 0 74 66" fill="none" xmlns="http://www.w3.org/2000/svg">
<path d="M47.6077 57.2122C47.2024 57.2205 46.9735 57.4982 46.6916 57.7147C44.2188 59.5795 41.4983 60.1155 38.5288 59.2155C37.8987 59.0176 37.399 59.0624 36.7717 59.3828C31.5683 62.036 26.3919 61.6961 21.4002 59.5484C14.6275 56.6424 10.1928 51.8087 7.63479 45.5853C5.76367 41.0517 5.34909 36.3742 6.96336 31.5654C8.85547 25.9146 13.0642 22.3659 19.4306 20.7359C22.6644 19.9199 25.8919 19.6777 29.1705 19.8906C29.6841 19.9146 30.0294 19.8108 30.3918 19.4889C31.2133 18.7188 32.2272 18.197 33.3208 17.7669C34.2792 16.9697 35.3743 16.9508 36.5088 17.2282C37.5673 17.4312 38.6257 17.6342 39.6807 17.82C41.3607 17.7753 42.9227 18.2548 44.4546 18.6865C47.4299 19.5138 50.2418 20.6416 52.633 22.407C53.1573 22.7868 53.89 23.0897 53.7457 23.8875C53.1235 24.6363 52.1831 25.0184 51.3683 25.5188C48.6938 27.1908 45.9928 28.8322 43.2918 30.4736C42.9834 30.6596 42.387 30.8308 42.5221 31.1978C42.6941 31.6469 43.2974 31.5102 43.751 31.4387C46.0088 31.0297 48.2526 30.5519 50.4873 30.1295C51.1332 30.0023 51.5543 29.6688 51.8394 29.1654C52.6441 27.8081 53.1045 26.3576 53.3943 24.8692C53.4619 24.4981 53.4799 24.083 53.9484 23.8834C54.5368 23.8748 54.7997 24.2703 55.0879 24.5892C57.0258 26.7302 58.3755 29.1838 59.2567 31.837C59.4231 32.3589 59.746 32.8499 59.7005 33.4314C59.649 33.7815 59.3671 33.9981 59.0887 34.2319C57.7034 35.4351 56.3113 36.604 54.9225 37.79C54.2299 38.3917 53.8246 38.4 53.0929 37.9C50.9208 36.4135 51.1986 36.6809 49.5027 38.16C48.0335 39.4514 46.5377 40.7122 45.1146 42.0303C44.2897 42.7832 43.9144 42.8393 42.9247 42.3723C41.866 41.8652 40.7946 41.3964 39.7324 40.8721C38.851 40.4374 38.6357 40.4798 37.9709 41.2191C37.1898 42.0887 36.3858 42.9448 35.6048 43.8144C34.872 44.6207 34.5002 44.694 33.4496 44.3284C31.3024 43.5706 29.1426 42.851 26.9758 42.097C25.8596 41.7086 25.7652 41.7451 25.0855 42.6126C23.5847 44.5543 23.8991 44.5997 21.2958 43.6991C19.4377 43.0633 17.5866 42.4618 15.6929 41.8508C18.4695 44.417 21.2783 46.941 24.0709 49.486C24.8213 50.1791 24.88 50.1676 25.5205 49.3078C27.0501 47.3068 26.7934 47.4468 29.1376 48.2732C31.0452 48.953 32.9942 49.5351 34.8857 50.236C35.5884 50.4912 36.0546 50.3814 36.5354 49.8394C37.2647 49.0159 38.04 48.219 38.7888 47.3916C39.7861 46.2827 40.0405 46.2325 41.3493 46.8693C42.3654 47.3669 43.4138 47.8223 44.4495 48.316C45.0578 48.6077 45.5275 48.5152 46.0257 48.0592C47.8182 46.4537 49.6441 44.9131 51.4366 43.3075C52.2454 42.5757 52.4676 42.5677 53.4055 43.0807C53.682 43.2409 53.9551 43.3839 54.212 43.548C55.2294 44.1527 55.249 44.1488 55.7626 43.0636C56.8474 40.7744 57.893 38.493 59.0239 36.2306C59.1997 35.8918 59.2569 35.469 59.7288 35.2866C60.1746 35.3777 60.1853 35.7334 60.2282 36.047C60.8384 42.9045 58.2821 48.7935 52.6054 53.7407C51.3398 54.8309 49.9981 55.8467 48.5734 56.7536C48.288 56.9529 47.9727 57.1045 47.6077 57.2122Z" fill="#F17503"/>
<path d="M47.6359 57.174C49.2906 55.9003 51.0846 54.8137 52.6137 53.4216C56.6939 49.7568 59.3364 45.5169 59.9297 40.3933C60.102 38.9289 60.0361 37.4935 60.0255 36.0294C60.016 35.7809 60.0192 35.4942 59.7589 35.313C59.4293 34.7879 59.9605 34.3971 60.1155 33.9553C60.2773 33.5479 60.4357 33.1233 60.7322 32.7788C60.3527 33.0145 60.183 33.5844 59.519 33.5185C58.5387 30.1712 57.0902 27.0235 54.5469 24.3954C54.3648 24.1988 54.1989 23.9812 53.8652 23.9397C53.78 23.9207 53.7305 23.8768 53.697 23.8119C52.9283 22.6222 51.617 21.9687 50.3805 21.2825C47.1579 19.5214 43.5816 18.5273 39.8365 17.9063C39.7744 17.9006 39.741 17.8357 39.6753 17.8129C42.4908 16.3462 45.4726 15.4011 48.6492 14.9183C51.6499 14.4701 54.5716 14.5381 57.3917 15.413C61.9926 16.8489 64.9391 19.8624 66.9566 23.6133C71.7489 32.4499 69.5272 44.4209 61.7547 51.9603C58.9669 54.6732 55.6167 56.5134 51.5264 57.1048C50.2482 57.3209 48.9479 57.3267 47.6359 57.174Z" fill="#D25C02"/>
<path d="M36.53 17.256C35.4593 17.3954 34.3643 17.4143 33.3423 17.7945C32.8442 17.1413 32.8941 16.3801 32.921 15.6056C32.9735 13.9494 33.2159 12.3273 33.812 10.743C34.7881 8.1177 36.9948 6.44857 39.5415 5.05238C39.8177 4.90852 40.0791 4.89281 40.3591 5.07022C41.5711 5.83326 42.7832 6.59629 44.1035 7.39167C40.0656 9.86877 36.9746 12.8033 36.53 17.256Z" fill="#68A900"/>
<path d="M59.5292 33.5127C60.022 33.1289 60.5113 32.7278 61.1951 32.1808C60.6433 33.3826 60.2064 34.3467 59.7534 35.3319C58.4254 38.1381 57.0548 40.9348 55.7659 43.7333C55.4406 44.4424 55.186 44.4926 54.5495 44.0627C53.89 43.6194 53.2268 42.8543 52.4491 42.9359C51.6715 43.0176 51.1585 43.9071 50.5334 44.4425C49.0241 45.7435 47.5345 47.0406 46.0714 48.3683C45.589 48.8039 45.2147 48.9673 44.5565 48.6312C43.3449 47.9742 42.0205 47.4649 40.7928 46.829C40.1346 46.493 39.7729 46.618 39.3275 47.1359C38.4045 48.2138 37.3858 49.2209 36.4628 50.2988C36.0658 50.7534 35.7455 50.7807 35.2199 50.5977C32.8087 49.7472 30.3457 48.9428 27.931 48.0751C27.2509 47.8329 26.8027 47.8317 26.4278 48.4969C26.1264 49.0222 25.6706 49.4883 25.3266 50.0041C24.9987 50.4988 24.7821 50.434 24.3854 50.0822C21.8321 47.7188 19.2465 45.3977 16.6771 43.0554C16.1051 42.541 15.5562 42.0401 15.0613 41.403C16.0398 41.7118 17.0414 42.0339 18.0199 42.3427C19.675 42.8764 21.3139 43.4312 22.9529 43.9859C23.4324 44.1423 23.7561 44.1322 24.0091 43.6702C24.115 43.488 24.2634 43.3154 24.3923 43.1467C25.6902 41.4036 25.6902 41.4036 27.8548 42.1414C29.8649 42.8201 31.875 43.4988 33.8724 44.2159C34.4441 44.4257 34.7966 44.3561 35.2098 43.8805C36.1489 42.7815 37.1802 41.736 38.1228 40.6543C38.5038 40.2208 38.8136 40.1418 39.3566 40.411C40.5612 41.0335 41.843 41.5333 43.0511 42.1731C43.782 42.5665 44.2589 42.5083 44.8932 41.9173C46.712 40.2328 48.6495 38.6323 50.4914 36.9612C51.0094 36.5007 51.3297 36.4733 51.89 36.8287C52.5922 37.2816 53.2463 38.1022 54.0631 38.0128C54.8603 37.9273 55.4286 37.0089 56.0929 36.4658C57.2625 35.5006 58.3826 34.4913 59.5292 33.5127Z" fill="#231F20"/>
<path d="M19.1162 30.583C23.8089 31.3413 28.1871 32.054 32.5584 32.7324C33.2105 32.8366 33.2452 33.0088 32.8217 33.4325C32.4983 33.7469 32.1841 34.0058 31.675 34.1061C29.2632 34.5635 26.8354 35.042 24.4271 35.5166C24.1334 35.5745 23.8501 35.6841 23.57 35.5065C21.6358 34.2942 20.3405 32.6157 19.1162 30.583Z" fill="#231F20"/>
<path d="M53.7199 23.817C53.7695 23.8609 53.8387 23.901 53.8882 23.945C53.4902 25.7065 53.1314 27.4603 52.1827 29.1155C51.7756 29.8224 51.2933 30.2577 50.3466 30.4085C48.1593 30.7679 45.9768 31.2518 43.8034 31.6801C43.5685 31.7264 43.3405 31.8072 43.1147 31.7979C42.617 31.7528 42.0201 31.6197 41.8654 31.2563C41.7407 30.9407 42.3372 30.7694 42.6458 30.5833C46.3609 28.3112 50.0404 26.0641 53.7199 23.817Z" fill="#231F20"/>
</svg>
