<svg width="360" height="104" viewBox="0 0 360 104" fill="none" xmlns="http://www.w3.org/2000/svg">
<g clip-path="url(#clip0_397_3)">
<path d="M149.995 6.40744C149.995 4.21136 149.995 2.1703 149.995 0.0258942C152.163 0.0258942 154.201 0.0258942 156.421 0.0258942C156.421 2.09279 156.421 4.15969 156.421 6.32993C170.664 6.32993 184.779 6.32993 199.023 6.32993C199.023 4.2372 199.023 2.1703 199.023 0.0258942C201.242 0.0258942 203.281 0.0258942 205.5 0.0258942C205.5 2.11863 205.5 4.21136 205.5 6.32993C207.409 6.40744 209.19 6.32993 210.893 6.61413C215.692 7.36338 218.995 11.2646 219.047 16.1219C219.098 21.4958 219.047 26.8956 219.047 32.2695C219.047 45.7043 219.047 59.1392 219.047 72.574C219.047 77.2762 216.466 80.8674 212.157 82.2109C211.177 82.5209 210.119 82.6243 209.112 82.6243C188.211 82.6501 167.284 82.6501 146.383 82.6243C140.629 82.6243 136.448 78.4388 136.448 72.6515C136.448 53.8944 136.448 35.1115 136.474 16.3285C136.474 10.5671 140.654 6.43328 146.434 6.3816C147.57 6.3816 148.731 6.40744 149.995 6.40744ZM142.925 30.3576C142.925 30.9002 142.925 31.3394 142.925 31.7528C142.925 45.2393 142.925 58.6999 142.925 72.1864C142.925 75.0026 144.112 76.1652 146.925 76.1652C167.491 76.1652 188.056 76.1652 208.622 76.1652C211.46 76.1652 212.622 75.0026 212.622 72.1864C212.622 58.6999 212.622 45.2393 212.622 31.7528C212.622 31.3136 212.622 30.8485 212.622 30.3576C189.321 30.3576 166.226 30.3576 142.925 30.3576ZM212.544 23.7694C212.544 21.0049 212.647 18.2921 212.493 15.6051C212.415 14.21 211.435 13.1765 210.015 12.9957C208.545 12.8148 207.048 12.944 205.448 12.944C205.448 15.1142 205.448 17.1553 205.448 19.2739C203.281 19.2739 201.216 19.2739 199.023 19.2739C199.023 17.1553 199.023 15.0626 199.023 12.9698C184.753 12.9698 170.639 12.9698 156.395 12.9698C156.395 15.1142 156.395 17.1811 156.395 19.2739C154.227 19.2739 152.163 19.2739 149.97 19.2739C149.97 17.1553 149.97 15.0626 149.97 12.8923C148.447 12.8923 147.08 12.789 145.712 12.9182C144.061 13.0732 142.951 14.365 142.899 16.096C142.848 17.517 142.874 18.938 142.874 20.359C142.874 21.4958 142.874 22.6326 142.874 23.7694C166.252 23.7694 189.346 23.7694 212.544 23.7694Z" fill="#644A77"/>
<path d="M148.808 37.1782C151.028 37.1782 153.04 37.1782 155.105 37.1782C155.105 39.3226 155.105 41.4153 155.105 43.5339C152.963 43.5339 150.924 43.5339 148.808 43.5339C148.808 41.3895 148.808 39.2968 148.808 37.1782Z" fill="#644A77"/>
<path d="M167.981 43.5598C165.865 43.5598 163.852 43.5598 161.736 43.5598C161.736 41.4412 161.736 39.3743 161.736 37.2041C163.801 37.2041 165.839 37.2041 167.981 37.2041C167.981 39.271 167.981 41.3637 167.981 43.5598Z" fill="#644A77"/>
<path d="M180.909 37.1782C180.909 39.3743 180.909 41.4153 180.909 43.5339C178.793 43.5339 176.728 43.5339 174.612 43.5339C174.612 41.4153 174.612 39.3226 174.612 37.1782C176.728 37.1782 178.767 37.1782 180.909 37.1782Z" fill="#644A77"/>
<path d="M187.514 43.5339C187.514 41.4153 187.514 39.3226 187.514 37.1782C189.63 37.1782 191.669 37.1782 193.81 37.1782C193.81 39.2968 193.81 41.3895 193.81 43.5339C191.695 43.5339 189.656 43.5339 187.514 43.5339Z" fill="#644A77"/>
<path d="M200.416 43.5339C200.416 41.4153 200.416 39.3226 200.416 37.1782C202.532 37.1782 204.597 37.1782 206.712 37.1782C206.712 39.2968 206.712 41.3895 206.712 43.5339C204.597 43.5339 202.558 43.5339 200.416 43.5339Z" fill="#644A77"/>
<path d="M155.105 50.0964C155.105 52.2408 155.105 54.3336 155.105 56.4521C152.963 56.4521 150.924 56.4521 148.808 56.4521C148.808 54.3077 148.808 52.215 148.808 50.0964C150.924 50.0964 152.989 50.0964 155.105 50.0964Z" fill="#644A77"/>
<path d="M161.71 56.452C161.71 54.3593 161.71 52.2665 161.71 50.1221C163.8 50.1221 165.865 50.1221 168.006 50.1221C168.006 52.2407 168.006 54.3076 168.006 56.452C165.891 56.452 163.852 56.452 161.71 56.452Z" fill="#644A77"/>
<path d="M174.638 50.0964C176.78 50.0964 178.793 50.0964 180.909 50.0964C180.909 52.215 180.909 54.2819 180.909 56.4521C178.819 56.4521 176.78 56.4521 174.638 56.4521C174.638 54.3594 174.638 52.2925 174.638 50.0964Z" fill="#644A77"/>
<path d="M193.836 56.4778C191.695 56.4778 189.682 56.4778 187.566 56.4778C187.566 54.3851 187.566 52.3182 187.566 50.1479C189.63 50.1479 191.695 50.1479 193.836 50.1479C193.836 52.2407 193.836 54.2817 193.836 56.4778Z" fill="#644A77"/>
<path d="M206.738 50.1221C206.738 52.3182 206.738 54.3593 206.738 56.4778C204.622 56.4778 202.558 56.4778 200.442 56.4778C200.442 54.3593 200.442 52.2665 200.442 50.1221C202.532 50.1221 204.597 50.1221 206.738 50.1221Z" fill="#FD990D"/>
<path d="M148.783 69.3702C148.783 67.2 148.783 65.1589 148.783 63.0403C150.899 63.0403 152.937 63.0403 155.079 63.0403C155.079 65.1331 155.079 67.2258 155.079 69.3702C152.989 69.3702 150.95 69.3702 148.783 69.3702Z" fill="#FD990D"/>
<path d="M168.006 69.3702C165.891 69.3702 163.852 69.3702 161.71 69.3702C161.71 67.2516 161.71 65.1848 161.71 63.0403C163.826 63.0403 165.865 63.0403 168.006 63.0403C168.006 65.1331 168.006 67.2258 168.006 69.3702Z" fill="#644A77"/>
<path d="M180.934 63.0661C180.934 65.1589 180.934 67.2258 180.934 69.3443C178.844 69.3443 176.806 69.3443 174.664 69.3443C174.664 67.3033 174.664 65.2105 174.664 63.0661C176.677 63.0661 178.715 63.0661 180.934 63.0661Z" fill="#644A77"/>
<path d="M187.514 63.0145C189.656 63.0145 191.695 63.0145 193.81 63.0145C193.81 65.1589 193.81 67.2258 193.81 69.3702C191.669 69.3702 189.63 69.3702 187.514 69.3702C187.514 67.2516 187.514 65.1589 187.514 63.0145Z" fill="#644A77"/>
<path d="M204.179 56.781C204.113 56.7694 204.067 56.8073 204.014 56.8336C203.552 57.0583 203.093 57.0583 202.64 56.8161C202.544 56.7635 202.462 56.7548 202.349 56.7869C201.418 57.0525 200.589 56.8306 199.849 56.3199C198.845 55.6281 198.284 54.6971 198.072 53.5996C197.917 52.7999 198.003 52.0235 198.422 51.2909C198.914 50.4299 199.714 49.9862 200.8 49.9249C201.352 49.8958 201.884 49.96 202.409 50.1001C202.491 50.1205 202.551 50.1147 202.62 50.0738C202.779 49.9746 202.96 49.922 203.152 49.887C203.334 49.7878 203.512 49.8199 203.687 49.9016C203.852 49.9687 204.017 50.0359 204.183 50.1001C204.457 50.1468 204.695 50.2752 204.929 50.3949C205.385 50.6254 205.804 50.8998 206.135 51.2646C206.207 51.3434 206.316 51.4164 206.267 51.5419C206.141 51.6441 205.976 51.6762 205.827 51.7316C205.339 51.9184 204.846 52.0994 204.354 52.2804C204.298 52.3008 204.196 52.3095 204.206 52.3738C204.219 52.4526 204.321 52.4496 204.397 52.4526C204.777 52.4584 205.157 52.4526 205.533 52.4555C205.642 52.4555 205.722 52.4146 205.785 52.3417C205.96 52.1461 206.082 51.9243 206.178 51.6908C206.201 51.6324 206.217 51.5653 206.3 51.5478C206.396 51.5653 206.425 51.6382 206.462 51.6995C206.706 52.1111 206.845 52.5547 206.901 53.0159C206.911 53.1064 206.947 53.1968 206.921 53.2902C206.901 53.3457 206.848 53.372 206.795 53.4011C206.531 53.5529 206.267 53.6989 206.003 53.8477C205.87 53.9236 205.804 53.9119 205.702 53.8069C205.398 53.4945 205.434 53.5471 205.111 53.7339C204.83 53.8973 204.546 54.0549 204.272 54.2242C204.113 54.3205 204.05 54.3176 203.905 54.2096C203.75 54.0929 203.591 53.982 203.436 53.8623C203.307 53.7631 203.271 53.7631 203.139 53.8623C202.984 53.9791 202.825 54.0929 202.67 54.2096C202.525 54.3176 202.462 54.3176 202.303 54.2242C201.98 54.0316 201.653 53.8448 201.326 53.6522C201.157 53.5529 201.141 53.5558 201.002 53.6755C200.695 53.944 200.744 53.9615 200.351 53.731C200.07 53.5675 199.79 53.4099 199.502 53.2494C199.869 53.7572 200.242 54.2593 200.612 54.7642C200.711 54.9014 200.721 54.9014 200.853 54.7817C201.167 54.5044 201.121 54.519 201.474 54.7292C201.762 54.9014 202.059 55.059 202.343 55.2341C202.449 55.2983 202.528 55.2954 202.624 55.2224C202.769 55.1115 202.921 55.0064 203.069 54.8955C203.268 54.7467 203.311 54.7467 203.502 54.8926C203.651 55.0064 203.806 55.1144 203.958 55.2283C204.047 55.2954 204.126 55.2954 204.222 55.237C204.566 55.0327 204.913 54.8401 205.256 54.6358C205.411 54.5424 205.448 54.5482 205.583 54.662C205.623 54.6971 205.662 54.7292 205.699 54.7642C205.844 54.8955 205.847 54.8955 205.966 54.735C206.217 54.3964 206.462 54.0579 206.719 53.7251C206.759 53.6755 206.782 53.6084 206.865 53.5938C206.934 53.623 206.924 53.6813 206.921 53.7339C206.795 54.8722 206.187 55.7507 205.104 56.3753C204.863 56.5125 204.612 56.6351 204.351 56.7372C204.298 56.7606 204.242 56.7752 204.179 56.781Z" fill="#F17503"/>
<path d="M204.179 56.781C204.49 56.6263 204.817 56.5067 205.111 56.3286C205.893 55.8616 206.462 55.2545 206.726 54.4373C206.802 54.2038 206.838 53.9674 206.884 53.7281C206.891 53.6872 206.901 53.6405 206.865 53.6026C206.828 53.5062 206.927 53.4595 206.967 53.3924C207.007 53.3311 207.046 53.2669 207.106 53.2202C207.036 53.2465 206.99 53.334 206.884 53.3019C206.835 52.724 206.703 52.1636 206.376 51.6528C206.353 51.6149 206.333 51.574 206.28 51.5565C206.267 51.5507 206.26 51.5419 206.257 51.5303C206.171 51.3114 205.979 51.1625 205.801 51.0107C205.335 50.6196 204.787 50.3423 204.199 50.1205C204.189 50.1176 204.186 50.1059 204.176 50.1001C204.681 49.9512 205.197 49.8929 205.728 49.9162C206.23 49.9396 206.703 50.0446 207.132 50.2781C207.832 50.6605 208.212 51.2471 208.417 51.9243C208.906 53.5208 208.153 55.4034 206.643 56.3841C206.102 56.7373 205.497 56.9299 204.813 56.8949C204.599 56.889 204.387 56.8482 204.179 56.781Z" fill="#D25C02"/>
<path d="M203.684 49.9016C203.505 49.8899 203.327 49.8578 203.149 49.887C203.089 49.7644 203.122 49.6418 203.152 49.5163C203.215 49.2478 203.307 48.991 203.456 48.7516C203.7 48.3547 204.113 48.1533 204.572 48.0074C204.622 47.9928 204.665 47.9986 204.704 48.0365C204.876 48.2 205.048 48.3634 205.236 48.5356C204.5 48.81 203.902 49.1894 203.684 49.9016Z" fill="#68A900"/>
<path d="M206.888 53.3019C206.98 53.2552 207.073 53.2056 207.202 53.1385C207.073 53.3165 206.97 53.4595 206.865 53.6055C206.557 54.0199 206.244 54.4315 205.943 54.8459C205.867 54.951 205.824 54.951 205.735 54.8605C205.643 54.7671 205.56 54.6212 205.431 54.6095C205.302 54.5978 205.19 54.7263 205.071 54.7934C204.784 54.9568 204.5 55.1203 204.219 55.2896C204.126 55.345 204.06 55.3596 203.965 55.2837C203.79 55.1378 203.591 55.0123 203.413 54.8693C203.317 54.7934 203.254 54.8021 203.165 54.8722C202.98 55.0181 202.782 55.1495 202.597 55.2954C202.518 55.3567 202.465 55.3509 202.386 55.3042C202.022 55.0882 201.649 54.878 201.286 54.6591C201.184 54.5978 201.111 54.5832 201.028 54.6796C200.962 54.7554 200.873 54.8167 200.8 54.8897C200.731 54.9598 200.698 54.9422 200.645 54.8722C200.308 54.4052 199.965 53.944 199.625 53.48C199.549 53.3778 199.476 53.2786 199.416 53.1589C199.565 53.2406 199.717 53.3253 199.866 53.407C200.117 53.5471 200.364 53.6901 200.612 53.8331C200.685 53.874 200.738 53.8827 200.794 53.8156C200.817 53.7893 200.847 53.766 200.873 53.7426C201.141 53.5004 201.141 53.5004 201.468 53.6901C201.771 53.8652 202.075 54.0404 202.376 54.2213C202.462 54.2739 202.521 54.2739 202.604 54.2096C202.792 54.0608 202.994 53.9236 203.182 53.7777C203.258 53.7193 203.311 53.7164 203.39 53.7777C203.565 53.9178 203.757 54.0404 203.932 54.1834C204.037 54.2709 204.117 54.2768 204.239 54.2009C204.589 53.9849 204.955 53.7864 205.309 53.5734C205.408 53.515 205.461 53.5208 205.54 53.5967C205.639 53.693 205.718 53.8477 205.854 53.8594C205.986 53.8711 206.108 53.7397 206.234 53.6726C206.455 53.5529 206.67 53.4245 206.888 53.3019Z" fill="#231F20"/>
<path d="M200.427 51.5186C201.164 51.7929 201.851 52.0498 202.538 52.3008C202.64 52.3387 202.64 52.3679 202.558 52.4234C202.495 52.4642 202.435 52.4963 202.349 52.4963C201.943 52.4934 201.534 52.4934 201.127 52.4934C201.078 52.4934 201.028 52.5022 200.989 52.4642C200.714 52.2045 200.559 51.8892 200.427 51.5186Z" fill="#231F20"/>
<path d="M206.26 51.5303C206.267 51.539 206.277 51.5478 206.283 51.5565C206.161 51.8309 206.045 52.1052 205.837 52.3446C205.748 52.4467 205.656 52.5022 205.497 52.4964C205.131 52.4847 204.761 52.4934 204.394 52.4934C204.354 52.4934 204.315 52.4993 204.278 52.4905C204.199 52.4672 204.107 52.4263 204.093 52.3621C204.084 52.3066 204.186 52.2979 204.242 52.2775C204.919 52.0264 205.59 51.7783 206.26 51.5303Z" fill="#231F20"/>
<path d="M152.179 69.781C152.113 69.7694 152.067 69.8073 152.014 69.8336C151.552 70.0583 151.093 70.0583 150.64 69.8161C150.544 69.7635 150.462 69.7548 150.349 69.7869C149.418 70.0525 148.589 69.8306 147.849 69.3199C146.845 68.6281 146.284 67.6971 146.072 66.5996C145.917 65.7999 146.003 65.0235 146.422 64.2909C146.914 63.4299 147.714 62.9862 148.8 62.9249C149.352 62.8958 149.884 62.96 150.409 63.1001C150.491 63.1205 150.551 63.1147 150.62 63.0738C150.779 62.9746 150.96 62.922 151.152 62.887C151.334 62.7878 151.512 62.8199 151.687 62.9016C151.852 62.9687 152.017 63.0359 152.183 63.1001C152.457 63.1468 152.695 63.2752 152.929 63.3949C153.385 63.6254 153.804 63.8998 154.135 64.2646C154.207 64.3434 154.316 64.4164 154.267 64.5419C154.141 64.6441 153.976 64.6762 153.827 64.7316C153.339 64.9184 152.846 65.0994 152.354 65.2804C152.298 65.3008 152.196 65.3095 152.206 65.3738C152.219 65.4526 152.321 65.4496 152.397 65.4526C152.777 65.4584 153.157 65.4526 153.533 65.4555C153.642 65.4555 153.722 65.4146 153.785 65.3417C153.96 65.1461 154.082 64.9243 154.178 64.6908C154.201 64.6324 154.217 64.5653 154.3 64.5478C154.396 64.5653 154.425 64.6382 154.462 64.6995C154.706 65.1111 154.845 65.5547 154.901 66.0159C154.911 66.1064 154.947 66.1968 154.921 66.2902C154.901 66.3457 154.848 66.372 154.795 66.4011C154.531 66.5529 154.267 66.6989 154.003 66.8477C153.87 66.9236 153.804 66.9119 153.702 66.8069C153.398 66.4945 153.434 66.5471 153.111 66.7339C152.83 66.8973 152.546 67.0549 152.272 67.2242C152.113 67.3205 152.05 67.3176 151.905 67.2096C151.75 67.0929 151.591 66.982 151.436 66.8623C151.307 66.7631 151.271 66.7631 151.139 66.8623C150.984 66.9791 150.825 67.0929 150.67 67.2096C150.525 67.3176 150.462 67.3176 150.303 67.2242C149.98 67.0316 149.653 66.8448 149.326 66.6522C149.157 66.5529 149.141 66.5558 149.002 66.6755C148.695 66.944 148.744 66.9615 148.351 66.731C148.07 66.5675 147.79 66.4099 147.502 66.2494C147.869 66.7572 148.242 67.2593 148.612 67.7642C148.711 67.9014 148.721 67.9014 148.853 67.7817C149.167 67.5044 149.121 67.519 149.474 67.7292C149.762 67.9014 150.059 68.059 150.343 68.2341C150.449 68.2983 150.528 68.2954 150.624 68.2224C150.769 68.1115 150.921 68.0064 151.069 67.8955C151.268 67.7467 151.311 67.7467 151.502 67.8926C151.651 68.0064 151.806 68.1144 151.958 68.2283C152.047 68.2954 152.126 68.2954 152.222 68.237C152.566 68.0327 152.913 67.8401 153.256 67.6358C153.411 67.5424 153.448 67.5482 153.583 67.662C153.623 67.6971 153.662 67.7292 153.699 67.7642C153.844 67.8955 153.847 67.8955 153.966 67.735C154.217 67.3964 154.462 67.0579 154.719 66.7251C154.759 66.6755 154.782 66.6084 154.865 66.5938C154.934 66.623 154.924 66.6813 154.921 66.7339C154.795 67.8722 154.187 68.7507 153.104 69.3753C152.863 69.5125 152.612 69.6351 152.351 69.7372C152.298 69.7606 152.242 69.7752 152.179 69.781Z" fill="#F17503"/>
<path d="M152.179 69.781C152.49 69.6263 152.817 69.5067 153.111 69.3286C153.893 68.8616 154.462 68.2545 154.726 67.4373C154.802 67.2038 154.838 66.9674 154.884 66.7281C154.891 66.6872 154.901 66.6405 154.865 66.6026C154.828 66.5062 154.927 66.4595 154.967 66.3924C155.007 66.3311 155.046 66.2669 155.106 66.2202C155.036 66.2465 154.99 66.334 154.884 66.3019C154.835 65.724 154.703 65.1636 154.376 64.6528C154.353 64.6149 154.333 64.574 154.28 64.5565C154.267 64.5507 154.26 64.5419 154.257 64.5303C154.171 64.3114 153.979 64.1625 153.801 64.0107C153.335 63.6196 152.787 63.3423 152.199 63.1205C152.189 63.1176 152.186 63.1059 152.176 63.1001C152.681 62.9512 153.197 62.8929 153.728 62.9162C154.23 62.9396 154.703 63.0446 155.132 63.2781C155.832 63.6605 156.212 64.2471 156.417 64.9243C156.906 66.5208 156.153 68.4034 154.643 69.3841C154.102 69.7373 153.497 69.9299 152.813 69.8949C152.599 69.889 152.387 69.8482 152.179 69.781Z" fill="#D25C02"/>
<path d="M151.684 62.9016C151.505 62.8899 151.327 62.8578 151.149 62.887C151.089 62.7644 151.122 62.6418 151.152 62.5163C151.215 62.2478 151.307 61.991 151.456 61.7516C151.7 61.3547 152.113 61.1533 152.572 61.0074C152.622 60.9928 152.665 60.9986 152.704 61.0365C152.876 61.2 153.048 61.3634 153.236 61.5356C152.5 61.81 151.902 62.1894 151.684 62.9016Z" fill="#68A900"/>
<path d="M154.888 66.3019C154.98 66.2552 155.073 66.2056 155.202 66.1385C155.073 66.3165 154.97 66.4595 154.865 66.6055C154.557 67.0199 154.244 67.4315 153.943 67.8459C153.867 67.951 153.824 67.951 153.735 67.8605C153.643 67.7671 153.56 67.6212 153.431 67.6095C153.302 67.5978 153.19 67.7263 153.071 67.7934C152.784 67.9568 152.5 68.1203 152.219 68.2896C152.126 68.345 152.06 68.3596 151.965 68.2837C151.79 68.1378 151.591 68.0123 151.413 67.8693C151.317 67.7934 151.254 67.8021 151.165 67.8722C150.98 68.0181 150.782 68.1495 150.597 68.2954C150.518 68.3567 150.465 68.3509 150.386 68.3042C150.022 68.0882 149.649 67.878 149.286 67.6591C149.184 67.5978 149.111 67.5832 149.028 67.6796C148.962 67.7554 148.873 67.8167 148.8 67.8897C148.731 67.9598 148.698 67.9422 148.645 67.8722C148.308 67.4052 147.965 66.944 147.625 66.48C147.549 66.3778 147.476 66.2786 147.416 66.1589C147.565 66.2406 147.717 66.3253 147.866 66.407C148.117 66.5471 148.364 66.6901 148.612 66.8331C148.685 66.874 148.738 66.8827 148.794 66.8156C148.817 66.7893 148.847 66.766 148.873 66.7426C149.141 66.5004 149.141 66.5004 149.468 66.6901C149.771 66.8652 150.075 67.0404 150.376 67.2213C150.462 67.2739 150.521 67.2739 150.604 67.2096C150.792 67.0608 150.994 66.9236 151.182 66.7777C151.258 66.7193 151.311 66.7164 151.39 66.7777C151.565 66.9178 151.757 67.0404 151.932 67.1834C152.037 67.2709 152.117 67.2768 152.239 67.2009C152.589 66.9849 152.955 66.7864 153.309 66.5734C153.408 66.515 153.461 66.5208 153.54 66.5967C153.639 66.693 153.718 66.8477 153.854 66.8594C153.986 66.8711 154.108 66.7397 154.234 66.6726C154.455 66.5529 154.67 66.4245 154.888 66.3019Z" fill="#231F20"/>
<path d="M148.427 64.5186C149.164 64.7929 149.851 65.0498 150.538 65.3008C150.64 65.3387 150.64 65.3679 150.558 65.4234C150.495 65.4642 150.435 65.4963 150.349 65.4963C149.943 65.4934 149.534 65.4934 149.127 65.4934C149.078 65.4934 149.028 65.5022 148.989 65.4642C148.714 65.2045 148.559 64.8892 148.427 64.5186Z" fill="#231F20"/>
<path d="M154.26 64.5303C154.267 64.539 154.277 64.5478 154.283 64.5565C154.161 64.8309 154.045 65.1052 153.837 65.3446C153.748 65.4467 153.656 65.5022 153.497 65.4964C153.131 65.4847 152.761 65.4934 152.394 65.4934C152.354 65.4934 152.315 65.4993 152.278 65.4905C152.199 65.4672 152.107 65.4263 152.093 65.3621C152.084 65.3066 152.186 65.2979 152.242 65.2775C152.919 65.0264 153.59 64.7783 154.26 64.5303Z" fill="#231F20"/>
</g>
<rect width="100" height="76" transform="translate(0 5)" fill="white"/>
<path d="M66.6077 64.2122C66.2024 64.2205 65.9735 64.4982 65.6916 64.7147C63.2188 66.5795 60.4983 67.1155 57.5288 66.2155C56.8987 66.0176 56.399 66.0624 55.7717 66.3828C50.5683 69.036 45.3919 68.6961 40.4002 66.5484C33.6275 63.6424 29.1928 58.8087 26.6348 52.5853C24.7637 48.0517 24.3491 43.3742 25.9634 38.5654C27.8555 32.9146 32.0642 29.3659 38.4306 27.7359C41.6644 26.9199 44.8919 26.6777 48.1705 26.8906C48.6841 26.9146 49.0294 26.8108 49.3918 26.4889C50.2133 25.7188 51.2272 25.197 52.3208 24.7669C53.2792 23.9697 54.3743 23.9508 55.5088 24.2282C56.5673 24.4312 57.6257 24.6342 58.6807 24.82C60.3607 24.7753 61.9227 25.2548 63.4546 25.6865C66.4299 26.5138 69.2418 27.6416 71.633 29.407C72.1573 29.7868 72.89 30.0897 72.7457 30.8875C72.1235 31.6363 71.1831 32.0184 70.3683 32.5188C67.6938 34.1908 64.9928 35.8322 62.2918 37.4736C61.9834 37.6596 61.387 37.8308 61.5221 38.1978C61.6941 38.6469 62.2974 38.5102 62.751 38.4387C65.0088 38.0297 67.2526 37.5519 69.4873 37.1295C70.1332 37.0023 70.5543 36.6688 70.8394 36.1654C71.6441 34.8081 72.1045 33.3576 72.3943 31.8692C72.4619 31.4981 72.4799 31.083 72.9484 30.8834C73.5368 30.8748 73.7997 31.2703 74.0879 31.5892C76.0258 33.7302 77.3755 36.1838 78.2567 38.837C78.4231 39.3589 78.746 39.8499 78.7005 40.4314C78.649 40.7815 78.3671 40.9981 78.0887 41.2319C76.7034 42.4351 75.3113 43.604 73.9225 44.79C73.2299 45.3917 72.8246 45.4 72.0929 44.9C69.9208 43.4135 70.1986 43.6809 68.5027 45.16C67.0335 46.4514 65.5377 47.7122 64.1146 49.0303C63.2897 49.7832 62.9144 49.8393 61.9247 49.3723C60.866 48.8652 59.7946 48.3964 58.7324 47.8721C57.851 47.4374 57.6357 47.4798 56.9709 48.2191C56.1898 49.0887 55.3858 49.9448 54.6048 50.8144C53.872 51.6207 53.5002 51.694 52.4496 51.3284C50.3024 50.5706 48.1426 49.851 45.9758 49.097C44.8596 48.7086 44.7652 48.7451 44.0855 49.6126C42.5847 51.5543 42.8991 51.5997 40.2958 50.6991C38.4377 50.0633 36.5866 49.4618 34.6929 48.8508C37.4695 51.417 40.2783 53.941 43.0709 56.486C43.8213 57.1791 43.88 57.1676 44.5205 56.3078C46.0501 54.3068 45.7934 54.4468 48.1376 55.2732C50.0452 55.953 51.9942 56.5351 53.8857 57.236C54.5884 57.4912 55.0546 57.3814 55.5354 56.8394C56.2647 56.0159 57.04 55.219 57.7888 54.3916C58.7861 53.2827 59.0405 53.2325 60.3493 53.8693C61.3654 54.3669 62.4138 54.8223 63.4495 55.316C64.0578 55.6077 64.5275 55.5152 65.0257 55.0592C66.8182 53.4537 68.6441 51.9131 70.4366 50.3075C71.2454 49.5757 71.4676 49.5677 72.4055 50.0807C72.682 50.2409 72.9551 50.3839 73.212 50.548C74.2294 51.1527 74.249 51.1488 74.7626 50.0636C75.8474 47.7744 76.893 45.493 78.0239 43.2306C78.1997 42.8918 78.2569 42.469 78.7288 42.2866C79.1746 42.3777 79.1853 42.7334 79.2282 43.047C79.8384 49.9045 77.2821 55.7935 71.6054 60.7407C70.3398 61.8309 68.9981 62.8467 67.5734 63.7536C67.288 63.9529 66.9727 64.1045 66.6077 64.2122Z" fill="#F17503"/>
<path d="M66.6359 64.174C68.2906 62.9003 70.0846 61.8137 71.6137 60.4216C75.6939 56.7568 78.3364 52.5169 78.9297 47.3933C79.102 45.9289 79.0361 44.4935 79.0255 43.0294C79.016 42.7809 79.0192 42.4942 78.7589 42.313C78.4293 41.7879 78.9605 41.3971 79.1155 40.9553C79.2773 40.5479 79.4357 40.1233 79.7322 39.7788C79.3527 40.0145 79.183 40.5844 78.519 40.5185C77.5387 37.1712 76.0902 34.0235 73.5469 31.3954C73.3648 31.1988 73.1989 30.9812 72.8652 30.9397C72.78 30.9207 72.7305 30.8768 72.697 30.8119C71.9283 29.6222 70.617 28.9687 69.3805 28.2825C66.1579 26.5214 62.5816 25.5273 58.8365 24.9063C58.7744 24.9006 58.741 24.8357 58.6753 24.8129C61.4908 23.3462 64.4726 22.4011 67.6492 21.9183C70.6499 21.4701 73.5716 21.5381 76.3917 22.413C80.9926 23.8489 83.9391 26.8624 85.9566 30.6133C90.7489 39.4499 88.5272 51.4209 80.7547 58.9603C77.9669 61.6732 74.6167 63.5134 70.5264 64.1048C69.2482 64.3209 67.9479 64.3267 66.6359 64.174Z" fill="#D25C02"/>
<path d="M55.53 24.256C54.4593 24.3954 53.3643 24.4143 52.3423 24.7945C51.8442 24.1413 51.8941 23.3801 51.921 22.6056C51.9735 20.9494 52.2159 19.3273 52.812 17.743C53.7881 15.1177 55.9948 13.4486 58.5415 12.0524C58.8177 11.9085 59.0791 11.8928 59.3591 12.0702C60.5711 12.8333 61.7832 13.5963 63.1035 14.3917C59.0656 16.8688 55.9746 19.8033 55.53 24.256Z" fill="#68A900"/>
<path d="M78.5292 40.5127C79.022 40.1289 79.5113 39.7278 80.1951 39.1808C79.6433 40.3826 79.2064 41.3467 78.7534 42.3319C77.4254 45.1381 76.0548 47.9348 74.7659 50.7333C74.4406 51.4424 74.186 51.4926 73.5495 51.0627C72.89 50.6194 72.2268 49.8543 71.4491 49.9359C70.6715 50.0176 70.1585 50.9071 69.5334 51.4425C68.0241 52.7435 66.5345 54.0406 65.0714 55.3683C64.589 55.8039 64.2147 55.9673 63.5565 55.6312C62.3449 54.9742 61.0205 54.4649 59.7928 53.829C59.1346 53.493 58.7729 53.618 58.3275 54.1359C57.4045 55.2138 56.3858 56.2209 55.4628 57.2988C55.0658 57.7534 54.7455 57.7807 54.2199 57.5977C51.8087 56.7472 49.3457 55.9428 46.931 55.0751C46.2509 54.8329 45.8027 54.8317 45.4278 55.4969C45.1264 56.0222 44.6706 56.4883 44.3266 57.0041C43.9987 57.4988 43.7821 57.434 43.3854 57.0822C40.8321 54.7188 38.2465 52.3977 35.6771 50.0554C35.1051 49.541 34.5562 49.0401 34.0613 48.403C35.0398 48.7118 36.0414 49.0339 37.0199 49.3427C38.675 49.8764 40.3139 50.4312 41.9529 50.9859C42.4324 51.1423 42.7561 51.1322 43.0091 50.6702C43.115 50.488 43.2634 50.3154 43.3923 50.1467C44.6902 48.4036 44.6902 48.4036 46.8548 49.1414C48.8649 49.8201 50.875 50.4988 52.8724 51.2159C53.4441 51.4257 53.7966 51.3561 54.2098 50.8805C55.1489 49.7815 56.1802 48.736 57.1228 47.6543C57.5038 47.2208 57.8136 47.1418 58.3566 47.411C59.5612 48.0335 60.843 48.5333 62.0511 49.1731C62.782 49.5665 63.2589 49.5083 63.8932 48.9173C65.712 47.2328 67.6495 45.6323 69.4914 43.9612C70.0094 43.5007 70.3297 43.4733 70.89 43.8287C71.5922 44.2816 72.2463 45.1022 73.0631 45.0128C73.8603 44.9273 74.4286 44.0089 75.0929 43.4658C76.2625 42.5006 77.3826 41.4913 78.5292 40.5127Z" fill="#231F20"/>
<path d="M38.1162 37.583C42.8089 38.3413 47.1871 39.054 51.5584 39.7324C52.2105 39.8366 52.2452 40.0088 51.8217 40.4325C51.4983 40.7469 51.1841 41.0058 50.675 41.1061C48.2632 41.5635 45.8354 42.042 43.4271 42.5166C43.1334 42.5745 42.8501 42.6841 42.57 42.5065C40.6358 41.2942 39.3405 39.6157 38.1162 37.583Z" fill="#231F20"/>
<path d="M72.7199 30.817C72.7695 30.8609 72.8387 30.901 72.8882 30.945C72.4902 32.7065 72.1314 34.4603 71.1827 36.1155C70.7756 36.8224 70.2933 37.2577 69.3466 37.4085C67.1593 37.7679 64.9768 38.2518 62.8034 38.6801C62.5685 38.7264 62.3405 38.8072 62.1147 38.7979C61.617 38.7528 61.0201 38.6197 60.8654 38.2563C60.7407 37.9407 61.3372 37.7694 61.6458 37.5833C65.3609 35.3112 69.0404 33.0641 72.7199 30.817Z" fill="#231F20"/>
<path d="M331.671 93.4844C331.436 93.405 331.246 93.5177 331.039 93.5841C329.226 94.1467 327.551 93.891 326.035 92.755C325.714 92.5099 325.418 92.432 324.99 92.4866C321.443 92.937 318.542 91.6659 316.126 89.3899C312.848 86.3065 311.317 82.5962 311.157 78.4738C311.036 75.469 311.782 72.6838 313.72 70.2441C315.996 67.3762 319.16 66.2024 323.159 66.584C325.188 66.7847 327.093 67.3152 328.931 68.1189C329.221 68.2394 329.442 68.2513 329.717 68.1408C330.351 67.867 331.043 67.7764 331.762 67.7553C332.48 67.4944 333.113 67.7108 333.706 68.1066C334.272 68.4435 334.837 68.7805 335.404 69.1067C336.378 69.4298 337.174 70.0309 337.963 70.5982C339.498 71.6935 340.876 72.9283 341.878 74.4436C342.1 74.7716 342.457 75.0986 342.206 75.529C341.691 75.8318 341.071 75.857 340.497 75.9766C338.609 76.386 336.713 76.7722 334.816 77.1585C334.6 77.2018 334.221 77.1767 334.222 77.4165C334.226 77.7115 334.601 77.7578 334.877 77.8108C336.26 78.0436 337.649 78.2339 339.021 78.4543C339.419 78.515 339.731 78.41 340.001 78.1787C340.749 77.5626 341.318 76.8212 341.798 76.0225C341.915 75.8223 342.012 75.5866 342.323 75.5687C342.663 75.6859 342.731 75.9687 342.829 76.2126C343.492 77.8505 343.751 79.5467 343.699 81.2608C343.685 81.5965 343.767 81.9469 343.619 82.273C343.516 82.4643 343.308 82.5307 343.099 82.6078C342.05 83.0145 341.005 83.3998 339.958 83.7959C339.433 83.9992 339.199 83.9198 338.884 83.4794C337.949 82.1705 338.052 82.3824 336.767 82.8838C335.651 83.3239 334.527 83.7408 333.432 84.2059C332.8 84.469 332.573 84.4234 332.103 83.9484C331.601 83.4359 331.084 82.9429 330.584 82.4198C330.17 81.9859 330.037 81.9657 329.5 82.2542C328.868 82.5938 328.226 82.9209 327.595 83.2604C327.004 83.5736 326.775 83.5386 326.249 83.1095C325.175 82.2263 324.086 81.3625 323 80.4774C322.44 80.0215 322.378 80.023 321.806 80.3824C320.535 81.1912 320.706 81.2827 319.4 80.2223C318.467 79.4695 317.53 78.738 316.571 77.9922C317.626 80.0496 318.708 82.0894 319.777 84.138C320.062 84.6938 320.098 84.6993 320.647 84.3362C321.947 83.4992 321.77 83.5267 322.942 84.4903C323.895 85.2788 324.892 86.0195 325.831 86.8167C326.181 87.1099 326.472 87.1434 326.862 86.9305C327.454 86.6067 328.067 86.3079 328.671 85.9859C329.477 85.5531 329.634 85.577 330.252 86.2163C330.731 86.7144 331.237 87.195 331.728 87.695C332.016 87.9896 332.305 88.0337 332.687 87.8741C334.055 87.3198 335.427 86.81 336.795 86.2558C337.413 86.0014 337.543 86.043 337.973 86.5338C338.098 86.6837 338.225 86.8229 338.338 86.9709C338.795 87.5312 338.808 87.533 339.331 87.0134C340.435 85.9178 341.516 84.8184 342.641 83.7477C342.814 83.5887 342.935 83.3566 343.245 83.3494C343.482 83.4945 343.413 83.702 343.372 83.8919C342.28 87.9758 339.573 90.8431 335.272 92.519C334.315 92.8853 333.331 93.1928 332.322 93.4203C332.116 93.4761 331.903 93.498 331.671 93.4844Z" fill="#F17503"/>
<path d="M331.671 93.4844C332.89 93.0928 334.15 92.8383 335.322 92.3523C338.438 91.0842 340.849 89.1852 342.269 86.3502C342.676 85.5404 342.94 84.698 343.242 83.8503C343.289 83.7049 343.351 83.54 343.24 83.3813C343.161 83.0096 343.549 82.8944 343.731 82.6715C343.909 82.4699 344.09 82.2577 344.333 82.1204C344.065 82.1776 343.847 82.4714 343.48 82.2953C343.621 80.1589 343.451 78.0404 342.542 75.9944C342.479 75.8431 342.429 75.6829 342.246 75.5896C342.201 75.5609 342.182 75.5253 342.176 75.4808C341.985 74.6342 341.369 73.9843 340.802 73.3312C339.321 71.6446 337.474 70.3274 335.453 69.1905C335.418 69.1743 335.413 69.1299 335.38 69.1031C337.307 68.8413 339.219 68.9153 341.147 69.2967C342.966 69.6615 344.631 70.308 346.068 71.3992C348.41 73.1844 349.469 75.5367 349.839 78.1218C350.734 84.22 346.938 90.6702 340.883 93.4082C338.71 94.3953 336.397 94.7616 333.921 94.253C333.141 94.1121 332.393 93.8453 331.671 93.4844Z" fill="#D25C02"/>
<path d="M333.694 68.1047C333.05 67.9628 332.417 67.7463 331.75 67.7535C331.601 67.273 331.79 66.8441 331.968 66.4027C332.347 65.4577 332.827 64.572 333.503 63.7814C334.616 62.469 336.235 61.9641 337.991 61.6873C338.18 61.6616 338.334 61.7068 338.457 61.8673C338.993 62.5594 339.529 63.2515 340.12 63.9848C337.279 64.5757 334.886 65.6274 333.694 68.1047Z" fill="#68A900"/>
<path d="M343.492 82.2972C343.855 82.1783 344.22 82.0487 344.728 81.8755C344.159 82.4534 343.705 82.9183 343.238 83.392C341.887 84.7333 340.512 86.0603 339.185 87.4053C338.849 87.7464 338.692 87.7225 338.417 87.3427C338.132 86.9503 337.912 86.3718 337.448 86.2575C336.985 86.1431 336.503 86.5492 336.032 86.7279C334.892 87.1643 333.765 87.6026 332.646 88.0639C332.278 88.2148 332.029 88.2313 331.721 87.901C331.164 87.271 330.51 86.7026 329.939 86.0814C329.632 85.7511 329.398 85.7481 329.034 85.9541C328.277 86.3836 327.481 86.7525 326.725 87.182C326.401 87.3615 326.212 87.3108 325.949 87.0962C324.743 86.1057 323.498 85.131 322.294 84.1299C321.955 83.8492 321.698 83.7555 321.343 84.0609C321.059 84.3011 320.7 84.4751 320.394 84.7009C320.102 84.9178 319.991 84.8355 319.837 84.5505C318.868 82.6587 317.871 80.7846 316.888 78.9017C316.668 78.4866 316.458 78.084 316.308 77.6142C316.805 77.9952 317.312 78.3887 317.809 78.7697C318.647 79.4207 319.471 80.0806 320.296 80.7404C320.538 80.93 320.726 80.9914 320.968 80.7777C321.067 80.6947 321.189 80.6261 321.298 80.5556C322.409 79.8206 322.409 79.8206 323.497 80.695C324.508 81.5033 325.52 82.3116 326.516 83.1393C326.8 83.3789 327.017 83.412 327.354 83.2236C328.124 82.7853 328.935 82.3969 329.704 81.9693C330.013 81.7986 330.208 81.8173 330.463 82.0852C331.024 82.6939 331.654 83.2479 332.214 83.8673C332.55 84.2457 332.837 84.3111 333.325 84.1023C334.723 83.5091 336.171 82.9891 337.579 82.4084C337.973 82.2506 338.163 82.3013 338.41 82.6224C338.718 83.029 338.921 83.6377 339.409 83.7557C339.884 83.8719 340.403 83.4606 340.899 83.2856C341.773 82.9722 342.628 82.6231 343.492 82.2972Z" fill="#231F20"/>
<path d="M320.91 72.1914C323.445 73.6028 325.809 74.9227 328.176 76.2213C328.528 76.4168 328.512 76.5233 328.18 76.6796C327.928 76.7938 327.693 76.8778 327.38 76.83C325.899 76.5931 324.404 76.365 322.922 76.1387C322.741 76.1111 322.555 76.1155 322.432 75.955C321.576 74.8544 321.185 73.6176 320.91 72.1914Z" fill="#231F20"/>
<path d="M342.188 75.4827C342.208 75.5183 342.239 75.5558 342.258 75.5914C341.659 76.5245 341.085 77.4613 340.192 78.2188C339.81 78.5419 339.441 78.6927 338.866 78.5831C337.535 78.3363 336.18 78.1623 334.842 77.9581C334.698 77.936 334.55 77.9352 334.422 77.883C334.146 77.7537 333.831 77.5531 333.819 77.3114C333.813 77.1035 334.192 77.1286 334.408 77.0853C337.019 76.5464 339.604 76.0146 342.188 75.4827Z" fill="#231F20"/>
<defs>
<clipPath id="clip0_397_3">
<rect width="82.6242" height="82.6242" fill="white" transform="translate(136.448)"/>
</clipPath>
</defs>
</svg>
