<svg width="360" height="124" viewBox="0 0 360 124" fill="none" xmlns="http://www.w3.org/2000/svg">
<path d="M360 49.7001V123.7H0V49.7001H5.6C8.1 49.7001 10.4 48.2001 11.4 45.9001L30.3 3.80006C32.7 -1.49995 40.3 -1.09995 42.1 4.40005L55.5 45.4001C56.4 48.0001 58.8 49.8001 61.5 49.8001H70.6C73.1 49.8001 75.4 48.3001 76.4 46.0001L95.3 3.80006C97.7 -1.49995 105.3 -1.09995 107.1 4.40005L120.5 45.4001C121.4 48.0001 123.8 49.8001 126.5 49.8001H130.6C133.1 49.8001 135.4 48.3001 136.4 46.0001L155.3 3.80006C157.7 -1.49995 165.3 -1.09995 167.1 4.40005L180.5 45.4001C181 46.8001 181.9 48.0001 183.1 48.8001C184.2 48.1001 185.1 47.1001 185.6 45.8001L200 9.50006C202.4 3.40006 211.3 4.50006 212.2 11.0001L216.5 44.2001C216.9 47.4001 219.6 49.7001 222.8 49.7001H244.7C247.3 49.7001 249.6 48.1001 250.6 45.7001L265 9.50006C267.4 3.40006 276.3 4.50006 277.2 11.0001L281.5 44.2001C281.9 47.4001 284.6 49.7001 287.8 49.7001H304.7C307.3 49.7001 309.6 48.1001 310.6 45.7001L325 9.50006C327.4 3.40006 336.3 4.50006 337.2 11.0001L341.5 44.2001C341.9 47.4001 344.6 49.7001 347.8 49.7001H360Z" fill="black"/>
</svg>
