<svg width="42" height="40" viewBox="0 0 42 40" fill="none" xmlns="http://www.w3.org/2000/svg">
<path d="M14.1303 5.7924C16.4968 5.7581 18.5547 6.61554 20.3038 8.19323C20.8526 8.67339 21.3671 9.22215 21.8815 9.77091C22.1559 10.0796 22.3274 10.0453 22.6361 9.77091C23.4249 9.01637 24.1452 8.19323 25.0369 7.54157C30.0786 3.83744 37.1439 6.13538 39.0989 12.1717C40.265 15.7044 39.6133 18.9626 37.0067 21.6378C32.4109 26.3709 27.7464 31.0354 23.1162 35.7341C22.5675 36.2829 21.9501 36.2829 21.4014 35.7341C16.7712 31.0354 12.1067 26.3709 7.47657 21.6378C2.60632 16.6304 4.97285 8.46761 11.0092 6.34116C12.0038 5.99819 13.0671 5.861 14.1303 5.65521C14.096 5.68951 14.1303 5.7581 14.1303 5.7924Z" fill="#DFDFFB"/>
</svg>
