<svg width="38" height="32" viewBox="0 0 38 32" fill="none" xmlns="http://www.w3.org/2000/svg">
<g clip-path="url(#clip0_233_344)">
<path d="M32.7831 20.5129C33.0045 22.7384 34.0769 23.8741 36.35 24.2986C37.061 24.4362 37.4457 24.8836 37.4573 25.6178C37.469 26.8338 37.5739 28.0728 36.8512 29.1741C36.0819 30.3327 35.0328 31.1587 33.5874 31.1702C27.3395 31.2046 21.0916 31.1931 14.8437 31.1931C14.8087 31.1931 14.7621 31.1816 14.7271 31.1702C14.7155 31.0669 14.7621 30.9751 14.832 30.9178C15.9511 29.9771 15.5081 28.7496 15.3916 27.6254C15.3333 27.0862 14.5873 26.7421 14.0161 26.8109C13.3983 26.8912 12.9087 27.3042 12.8388 27.9007C12.7688 28.5775 12.7922 29.2658 12.8271 29.9542C12.8388 30.241 13.0136 30.4474 13.2001 30.6425C13.3517 30.8031 13.5848 30.9063 13.5965 31.1702C10.3559 31.1702 7.11543 31.2275 3.87492 31.1587C2.00988 31.1243 0.226435 29.1626 0.179809 27.2812C0.168152 26.7306 0.168152 26.1685 0.179809 25.6178C0.179809 24.8607 0.587786 24.4133 1.34546 24.2986C3.45529 23.9774 4.71419 22.6237 4.84241 20.5243C5.09886 20.2949 5.41358 20.3293 5.71665 20.3293C7.55838 20.3293 9.38845 20.3293 11.2302 20.3293C12.3142 20.3293 12.3026 20.3293 12.3375 19.2854C12.3492 18.9871 12.2326 18.62 12.629 18.4365C12.9437 18.7692 12.8038 19.1936 12.8271 19.5722C12.8504 19.859 12.8504 20.1343 12.8155 20.4211C12.8155 21.0635 12.7922 21.7174 12.8155 22.3598C12.8388 23.2087 13.3983 23.7823 14.1793 23.7594C14.9369 23.7479 15.4615 23.1973 15.4965 22.3713C15.5198 21.7289 15.4965 21.075 15.5081 20.4326C15.4731 19.9622 15.4848 19.4804 15.4965 19.0101C15.4965 18.8036 15.5081 18.5856 15.683 18.4365C16.056 18.5971 15.9744 18.9412 15.9744 19.228C15.9977 20.3293 15.8695 20.3293 17.1517 20.3293C22.0124 20.3293 26.8732 20.3293 31.734 20.3293C32.0837 20.3178 32.4683 20.2375 32.7831 20.5129Z" fill="#DFDFFB"/>
<path d="M32.7831 20.5129C27.3628 20.5129 21.9309 20.5014 16.5106 20.5243C15.9278 20.5243 15.7179 20.3981 15.7646 19.8016C15.7995 19.3542 15.8811 18.8953 15.6946 18.4479C15.4965 18.3562 15.4732 18.1497 15.3799 17.9891C15.1118 17.4843 14.6805 17.2319 14.121 17.2434C13.5848 17.2549 13.1652 17.4958 12.9204 17.9891C12.8388 18.1497 12.8038 18.3562 12.6057 18.4479C12.4192 18.9412 12.5241 19.4575 12.5357 19.9622C12.5357 20.3867 12.4075 20.5129 11.9762 20.5129C9.59828 20.5014 7.22035 20.5129 4.84242 20.5129C4.73751 18.4135 3.47861 17.0598 1.3105 16.7157C0.716017 16.6239 0.249756 16.3027 0.214787 15.7062C0.133191 14.4787 0.0282827 13.2283 0.669391 12.0811C1.25222 11.0027 2.13811 10.2915 3.32707 9.94733C3.52524 9.88997 3.7234 9.80967 3.92156 9.74084C6.80071 9.54582 9.67987 9.69495 12.559 9.64906C12.8854 9.64906 13.2234 9.60317 13.5149 9.78672C13.6781 10.062 13.41 10.1653 13.2817 10.28C12.9204 10.6012 12.7688 10.9798 12.7922 11.4501C12.8155 11.9434 12.7688 12.4367 12.8038 12.9415C12.8504 13.6986 13.4333 14.2378 14.1676 14.2148C14.8903 14.1919 15.4382 13.6757 15.4848 12.9415C15.5198 12.3679 15.4965 11.7943 15.4965 11.2322C15.4965 10.8421 15.2867 10.5553 15.0186 10.2915C14.8903 10.1653 14.6222 10.0735 14.7738 9.78672C15.0302 9.61465 15.3333 9.63759 15.6247 9.63759C21.5112 9.63759 27.3978 9.63759 33.2726 9.63759C33.6806 9.63759 34.1003 9.62612 34.415 9.94733C36.4199 10.6701 37.5506 12.3335 37.4457 14.3869C37.434 14.7081 37.4457 15.0408 37.4457 15.362C37.4457 16.1421 37.0377 16.601 36.2451 16.7157C34.2052 16.991 32.888 18.4365 32.7831 20.5129Z" fill="#DFDFFB"/>
<path d="M13.5731 9.91291C13.3516 9.78672 13.1185 9.84408 12.8854 9.84408C10.0995 9.84408 7.31357 9.84408 4.52766 9.83261C4.3295 9.83261 4.09637 9.91291 3.92152 9.75231C6.00804 8.99517 8.09455 8.23803 10.1811 7.48089C16.1492 5.28977 22.1057 3.08719 28.0738 0.907546C29.8922 0.242182 31.3376 0.941962 31.9671 2.76598C32.7947 5.16358 33.599 7.56119 34.415 9.9588C33.8438 9.82114 33.261 9.83261 32.6781 9.83261C26.9198 9.83261 21.1615 9.83261 15.4032 9.83261C15.1701 9.83261 14.9369 9.78672 14.7155 9.90144C14.3424 10.062 13.9578 10.062 13.5731 9.91291Z" fill="#9999CD"/>
<path d="M12.6057 18.4479C12.8038 17.5531 13.375 17.0484 14.1793 17.0713C14.9603 17.0828 15.4965 17.5761 15.6946 18.4479C15.683 19.1362 15.6713 19.8246 15.6597 20.5129C15.5314 20.6391 15.3566 20.6849 15.1817 20.6849C14.494 20.7079 13.8063 20.7079 13.1069 20.6849C12.932 20.6849 12.7688 20.6391 12.629 20.5129C12.629 19.8246 12.6173 19.1362 12.6057 18.4479Z" fill="#F17503"/>
<path d="M12.6406 20.5129C13.6431 20.5129 14.6572 20.5129 15.6596 20.5129C15.6596 21.2012 15.6946 21.878 15.6596 22.5663C15.6247 23.3808 14.9369 23.9659 14.1093 23.9544C13.305 23.9429 12.6639 23.3579 12.6173 22.5663C12.6056 21.878 12.629 21.1897 12.6406 20.5129Z" fill="#F17503"/>
<path d="M13.5731 9.91291C13.9578 9.80966 14.3424 9.80966 14.7271 9.91291C15.3915 10.2226 15.7179 10.7274 15.6829 11.4616C15.6596 11.9778 15.6946 12.4941 15.6713 12.9988C15.6247 13.8018 14.9253 14.4213 14.121 14.3984C13.3283 14.3754 12.6756 13.7904 12.6289 12.9988C12.594 12.3908 12.6056 11.7828 12.6289 11.1748C12.6523 10.5553 13.0369 10.1653 13.5731 9.91291Z" fill="#F17503"/>
<path d="M13.5848 31.1587C12.8504 30.7457 12.524 30.1492 12.6056 29.3117C12.6523 28.8529 12.594 28.394 12.629 27.9466C12.6872 27.1895 13.4099 26.5814 14.1676 26.6044C14.9369 26.6273 15.613 27.2009 15.648 27.9466C15.683 28.589 15.6713 29.2429 15.648 29.8853C15.6363 30.5163 15.1584 30.8375 14.6922 31.1587C14.3308 31.2161 13.9578 31.2161 13.5848 31.1587Z" fill="#F17503"/>
</g>
<defs>
<clipPath id="clip0_233_344">
<rect width="37.3241" height="30.5379" fill="white" transform="translate(0.144836 0.655212)"/>
</clipPath>
</defs>
</svg>
