<svg width="35" height="32" viewBox="0 0 35 32" fill="none" xmlns="http://www.w3.org/2000/svg">
<g clip-path="url(#clip0_285_139)">
<path d="M23.1166 10.3614L32.034 11.5275C32.8228 11.6304 33.1315 12.5565 32.5827 13.1395L26.2377 19.4846C26.0319 19.6904 25.929 19.999 25.9633 20.3077L27.6096 29.1565C27.7468 29.911 26.9579 30.5284 26.272 30.1511L18.2464 26.104C17.972 25.9668 17.629 25.9668 17.3889 26.104L9.50049 30.3912C8.81454 30.7684 7.9914 30.1854 8.12859 29.4308L9.50049 20.5478C9.53479 20.2391 9.4319 19.9304 9.22611 19.7247L2.70959 13.5168C2.16083 12.968 2.43521 12.042 3.22405 11.9048L12.1071 10.4986C12.4158 10.4643 12.6902 10.2585 12.7931 9.98416L16.6344 1.88995C16.9773 1.204 17.972 1.1697 18.315 1.85565L22.3964 9.88127C22.5678 10.1556 22.8079 10.3271 23.1166 10.3614Z" fill="#DFDFFB"/>
</g>
<defs>
<clipPath id="clip0_285_139">
<rect width="30.4562" height="29.1872" fill="white" transform="translate(2.40082 1.3411)"/>
</clipPath>
</defs>
</svg>
