<svg width="152" height="152" viewBox="0 0 152 152" fill="none" xmlns="http://www.w3.org/2000/svg">
<path d="M88.0978 132.811C87.2198 132.656 86.6048 133.161 85.9021 133.51C79.7535 136.5 73.6503 136.501 67.6366 133.279C66.3637 132.581 65.266 132.464 63.773 132.892C51.3892 136.426 40.3699 133.477 30.5381 126.684C17.195 117.485 9.73716 105.101 6.93467 90.5042C4.87655 79.867 6.02353 69.54 11.6049 59.7948C18.1531 48.3413 28.7818 42.4389 43.2278 41.6218C50.5606 41.2327 57.6293 42.0859 64.6096 43.9486C65.7072 44.2202 66.4976 44.1424 67.4199 43.5988C69.5281 42.2786 71.9434 41.5795 74.4903 41.1133C76.9059 39.793 79.2767 40.2198 81.6033 41.3065C83.7982 42.1992 85.9931 43.0918 88.188 43.9457C91.832 44.5664 94.9925 46.2742 98.1091 47.8655C104.167 50.9318 109.741 54.5804 114.129 59.4327C115.095 60.4808 116.543 61.4512 115.884 63.1207C114.215 64.4797 112.019 64.907 110.043 65.6449C103.543 68.1303 96.9996 70.5382 90.4561 72.946C89.7095 73.2178 88.3483 73.3345 88.4796 74.1885C88.6547 75.2367 90.0159 75.1978 91.0257 75.2365C96.0751 75.3135 101.124 75.2352 106.13 75.2734C107.579 75.2732 108.633 74.7296 109.468 73.7589C111.796 71.1575 113.422 68.2068 114.697 65.1008C115.005 64.3243 115.225 63.4313 116.323 63.1983C117.596 63.431 117.991 64.4016 118.473 65.2168C121.72 70.6904 123.561 76.5912 124.304 82.7251C124.435 83.9286 124.917 85.1321 124.565 86.3744C124.302 87.1121 123.599 87.4616 122.896 87.8499C119.382 89.8691 115.869 91.8107 112.355 93.7911C110.598 94.8007 109.72 94.6455 108.36 93.2481C104.323 89.0945 104.805 89.7933 100.501 92.2785C96.7676 94.453 92.9905 96.5499 89.345 98.8021C87.2367 100.083 86.4025 100.045 84.4713 98.6086C82.4085 97.0559 80.3017 95.5809 78.2388 93.9894C76.5271 92.6697 76.0441 92.6697 74.2871 93.9899C72.2227 95.5431 70.1143 97.0574 68.0499 98.6106C66.1172 100.047 65.2829 100.047 63.176 98.8053C58.8744 96.2435 54.5288 93.7594 50.1833 91.1976C47.9447 89.878 47.7252 89.9168 45.8802 91.5088C41.7949 95.081 42.4534 95.3138 37.23 92.2475C33.499 90.0738 29.768 87.9779 25.9491 85.8431C30.8193 92.5977 35.7774 99.2746 40.6916 105.99C42.0078 107.815 42.1396 107.815 43.8967 106.223C48.0698 102.534 47.455 102.728 52.1517 105.523C55.9705 107.813 59.9211 109.909 63.6959 112.238C65.1005 113.092 66.1543 113.053 67.4281 112.082C69.3608 110.607 71.3813 109.209 73.3579 107.733C75.9934 105.753 76.5642 105.753 79.1098 107.694C81.0849 109.208 83.1478 110.644 85.1668 112.158C86.3518 113.05 87.4056 113.05 88.6793 112.274C93.2471 109.555 97.8588 106.993 102.427 104.274C104.491 103.032 104.974 103.109 106.773 104.623C107.3 105.089 107.827 105.516 108.309 105.982C110.24 107.729 110.284 107.729 111.866 105.593C115.205 101.089 118.457 96.5856 121.884 92.1594C122.411 91.4993 122.719 90.6063 123.817 90.4121C124.739 90.8002 124.607 91.5767 124.562 92.2755C122.886 107.417 114.801 119.103 100.395 127.413C97.1886 129.238 93.8507 130.869 90.3813 132.228C89.6786 132.539 88.9321 132.733 88.0978 132.811Z" fill="#F17503"/>
<path d="M88.087 132.821C92.2158 130.763 96.5639 129.171 100.473 126.802C110.884 120.588 118.441 112.511 121.959 101.64C122.971 98.5335 123.456 95.3886 124.072 92.2048C124.16 91.6612 124.292 91.04 123.809 90.5353C123.327 89.2541 124.645 88.6327 125.172 87.7396C125.699 86.9242 126.227 86.07 127.018 85.4487C126.095 85.7982 125.48 86.9631 124.075 86.5362C123.42 78.8487 121.668 71.3943 117.324 64.6002C117.017 64.0955 116.753 63.552 116.051 63.3191C115.875 63.2415 115.788 63.125 115.744 62.9697C114.604 60.0579 112.058 58.0781 109.688 56.0594C103.499 50.8575 96.2112 47.1699 88.3964 44.22C88.2647 44.1812 88.2208 44.0259 88.0892 43.9483C94.8087 41.9674 101.659 41.19 108.729 41.4998C115.403 41.8096 121.682 43.2065 127.389 46.3119C136.696 51.397 141.742 59.2005 144.459 68.2078C150.947 89.4449 140.923 114.489 120.848 127.537C113.644 132.236 105.607 134.799 96.5173 134.334C93.6631 134.257 90.853 133.714 88.087 132.821Z" fill="#D25C02"/>
<path d="M81.5485 41.2967C79.1775 41.1417 76.8067 40.715 74.4355 41.1035C73.646 39.473 74.0859 37.8424 74.482 36.1729C75.3181 32.6011 76.5493 29.1845 78.5268 26.0007C81.7788 20.7203 87.2687 18.0408 93.373 16.0989C94.0317 15.9047 94.6024 15.9823 95.1291 16.4869C97.4112 18.6607 99.6933 20.8346 102.195 23.1248C92.4014 26.7754 84.4514 31.8235 81.5485 41.2967Z" fill="#68A900"/>
<path d="M124.121 86.5373C125.351 85.9162 126.58 85.2562 128.293 84.3633C126.58 86.7312 125.218 88.6332 123.812 90.5741C119.726 96.0862 115.552 101.56 111.554 107.072C110.544 108.469 109.973 108.469 108.788 107.266C107.56 106.024 106.463 104.083 104.751 103.928C103.039 103.773 101.545 105.481 99.9642 106.374C96.1435 108.548 92.3667 110.722 88.6338 112.974C87.4041 113.711 86.5259 113.906 85.2532 112.896C82.9273 110.956 80.2939 109.287 77.924 107.386C76.6513 106.376 75.8171 106.493 74.6312 107.425C72.1716 109.366 69.5365 111.113 67.0769 113.054C66.0228 113.869 65.3204 113.791 64.267 113.17C59.439 110.298 54.4793 107.504 49.6513 104.594C48.2907 103.779 47.3249 103.585 46.2267 104.866C45.3481 105.875 44.1623 106.69 43.1959 107.661C42.2735 108.592 41.8345 108.359 41.1325 107.428C36.6574 101.218 32.0945 95.0857 27.5755 88.9146C26.5663 87.5562 25.6011 86.2366 24.8116 84.6452C26.7868 85.7319 28.8058 86.8573 30.7809 87.9439C34.1167 89.8067 37.4085 91.7083 40.7004 93.6099C41.666 94.1532 42.3684 94.2696 43.1152 93.3768C43.4227 93.0274 43.818 92.7169 44.1694 92.4063C47.7272 89.1843 47.7272 89.1843 52.0724 91.7068C56.1104 94.0353 60.1484 96.3638 64.1425 98.77C65.2836 99.4685 66.0739 99.4684 67.1719 98.6144C69.6754 96.6346 72.3545 94.81 74.8579 92.869C75.8681 92.0926 76.5706 92.0538 77.6239 92.8688C79.9499 94.7317 82.4955 96.3616 84.8214 98.2633C86.2258 99.4276 87.2794 99.5052 88.9044 98.4958C93.5596 95.623 98.4342 92.9831 103.133 90.1492C104.451 89.3728 105.153 89.4503 106.206 90.4594C107.523 91.7402 108.576 93.7973 110.376 93.9523C112.132 94.1074 113.757 92.3606 115.426 91.4677C118.368 89.876 121.223 88.1678 124.121 86.5373Z" fill="#231F20"/>
<path d="M38.2556 62.8146C48.0446 66.4625 57.1751 69.8775 66.3057 73.2149C67.6665 73.7194 67.6663 74.1076 66.5683 74.8452C65.7338 75.3888 64.9433 75.8159 63.8018 75.816C58.4015 75.7778 52.9572 75.7784 47.5569 75.779C46.8983 75.7791 46.2397 75.8956 45.7131 75.3911C42.0707 71.9366 40.0093 67.7444 38.2556 62.8146Z" fill="#231F20"/>
<path d="M115.787 62.9667C115.875 63.0831 116.007 63.1996 116.094 63.316C114.468 66.9652 112.929 70.6143 110.162 73.7977C108.976 75.1565 107.746 75.8942 105.638 75.8168C100.765 75.6621 95.8476 75.7791 90.9742 75.7796C90.4473 75.7797 89.9204 75.8574 89.4375 75.741C88.384 75.4306 87.1549 74.8872 86.9797 74.0332C86.8484 73.2957 88.2095 73.1791 88.956 72.9073C97.9583 69.5679 106.873 66.2673 115.787 62.9667Z" fill="#231F20"/>
</svg>
