<svg width="105" height="96" viewBox="0 0 105 96" fill="none" xmlns="http://www.w3.org/2000/svg">
<path d="M78.9666 95.0637C79.4993 91.1094 78.316 88.0105 74.8405 86.0392C74.9347 85.3148 75.1148 84.6135 75.0973 83.9181C75.0527 81.8293 74.0712 80.2814 72.2359 79.2896C71.5175 78.9084 70.7602 78.5923 70.039 78.1773C72.9777 76.754 76.0232 76.3942 79.2323 76.9316C79.1755 77.0719 79.142 77.1784 79.0903 77.2824C77.9274 79.8301 78.8164 82.7252 81.2195 84.1662C81.7845 84.5039 81.9378 84.4696 82.2221 83.8716C82.5297 83.2398 82.8243 82.5951 83.1707 81.8723C84.0867 83.2258 85.2815 83.8361 86.8876 83.7363C86.5515 84.4123 86.2439 85.0441 85.9363 85.6759C85.6287 86.3077 85.681 86.4373 86.3497 86.6967C88.9518 87.6984 91.759 86.6571 93.0884 84.1918C93.1349 84.0982 93.1919 84.0097 93.2695 83.8796C95.6383 86.0941 97.1947 88.7296 97.926 91.9808C97.6762 91.8573 97.5122 91.7826 97.3456 91.7003C96.8771 91.4686 96.4112 91.2447 95.9427 91.013C93.2306 89.6848 90.5836 90.3518 88.8278 92.8136C88.8045 92.8474 88.7786 92.8735 88.7424 92.9203C84.9949 91.3004 81.7924 92.2499 78.9666 95.0637Z" fill="black"/>
<path d="M96.7628 81.0222C95.2092 79.3527 93.4111 78.7514 91.2797 79.5716C90.9939 79.2673 90.7494 78.9334 90.4359 78.6889C89.497 77.951 88.4572 77.8231 87.3535 78.2741C86.9245 78.4532 86.5102 78.673 86.0653 78.8411C86.5024 77.0267 87.4481 75.5509 88.8494 74.3282C88.8908 74.4042 88.9257 74.4577 88.9529 74.5182C89.6566 75.956 91.2579 76.6133 92.7661 76.0744C93.1202 75.9473 93.1606 75.8672 92.9996 75.5247C92.832 75.1597 92.6541 74.7957 92.4604 74.3805C93.3906 74.4668 94.0935 74.1604 94.632 73.4147C94.8087 73.8083 94.9762 74.1734 95.1437 74.5384C95.3113 74.9035 95.3875 74.9273 95.7446 74.726C97.1309 73.9399 97.689 72.3222 97.0822 70.8407C97.0577 70.7862 97.0393 70.729 97.01 70.6475C98.8474 70.4043 100.576 70.6727 102.278 71.5289C102.132 71.5944 102.04 71.6398 101.943 71.6835C101.671 71.8064 101.403 71.931 101.131 72.054C99.5603 72.7703 98.8948 74.1815 99.3455 75.85C99.352 75.8725 99.3541 75.8934 99.3617 75.9265C97.2868 76.9943 96.5447 78.7534 96.7628 81.0222Z" fill="black"/>
<path d="M32.3737 36.9467C32.5201 18.5412 44.7661 3.91113 62.0217 0.725558C81.3574 -2.87296 100.429 10.5182 103.623 30.0446C105.41 41.0172 102.539 50.7509 95.8299 59.5702C87.3925 70.6902 79.1602 81.9577 70.84 93.1662C69.3459 95.1719 67.1486 95.1719 65.6545 93.1367C56.9827 81.4563 48.3403 69.7758 39.6685 58.0954C34.8346 51.6063 32.403 44.2912 32.3737 36.9467ZM68.2033 48.2142C74.7657 48.2437 80.1856 42.8754 80.1856 36.2978C80.2149 29.8087 74.8536 24.3814 68.3791 24.3224C61.7874 24.2929 56.3968 29.5727 56.3089 36.1798C56.2503 42.6984 61.6702 48.1847 68.2033 48.2142Z" fill="#644A77"/>
<path d="M35.1526 38.787C30.8452 32.3289 25.1325 29.3262 17.5232 30.9175C16.7292 29.7387 16.0902 28.4832 15.1704 27.4904C12.4192 24.4982 8.99558 23.5005 5.04075 24.4126C3.50159 24.78 1.98939 25.2922 0.402938 25.6138C2.86298 19.7567 6.84666 15.3149 12.223 11.9727C12.3205 12.2506 12.4086 12.4493 12.4669 12.6676C14.0454 17.8826 19.0663 20.9661 24.4279 19.9797C25.6871 19.7462 25.8667 19.4989 25.5128 18.2603C25.1495 16.9422 24.7505 15.6221 24.3267 14.1214C27.4047 14.9196 29.9338 14.2741 32.1504 12.063C32.5291 13.4822 32.8924 14.8002 33.2558 16.1182C33.6191 17.4362 33.8621 17.558 35.1721 17.0768C40.2593 15.1931 43.0185 10.0628 41.7892 4.75386C41.7367 4.55735 41.7061 4.35497 41.6522 4.06526C47.9584 4.25214 53.6198 6.09854 58.8686 9.90469C58.3449 10.0456 58.0096 10.1475 57.6605 10.2415C56.6785 10.5057 55.7103 10.778 54.7284 11.0422C49.0606 12.5907 46.0538 16.9686 46.6563 22.8206C46.6658 22.9 46.6614 22.9714 46.6688 23.0864C39.1143 25.5405 35.6597 31.0451 35.1526 38.787Z" fill="black"/>
</svg>
